<svg width="40" height="43" viewBox="0 0 40 43" fill="none" xmlns="http://www.w3.org/2000/svg">
<path d="M5.59453 37.9879L12.8442 37.9231L12.7363 25.8402C12.7302 25.1555 12.9566 24.5795 13.4157 24.1122C13.8747 23.6449 14.4466 23.4082 15.1313 23.4021L24.7975 23.3157C25.4822 23.3096 26.0582 23.536 26.5255 23.9951C26.9929 24.4541 27.2296 25.026 27.2357 25.7107L27.3437 37.7935L34.5934 37.7287L34.399 15.9796L19.8024 5.23461L5.40019 16.2387L5.59453 37.9879ZM0.761391 38.0311L0.567052 16.2819C0.560215 15.5167 0.72491 14.7902 1.06114 14.1024C1.39737 13.4147 1.86558 12.8466 2.46576 12.3981L16.868 1.39401C17.7081 0.742037 18.6718 0.41119 19.7593 0.401473C20.8467 0.391756 21.8162 0.705328 22.6678 1.34219L37.2644 12.0872C37.8725 12.5248 38.3508 13.0845 38.6992 13.7661C39.0477 14.4477 39.2253 15.1712 39.2322 15.9364L39.4265 37.6856C39.4384 39.0147 38.9753 40.1567 38.0373 41.1117C37.0992 42.0666 35.9657 42.55 34.6366 42.5619L24.9703 42.6483C24.2856 42.6544 23.7096 42.4279 23.2423 41.9689C22.7749 41.5098 22.5382 40.938 22.5321 40.2533L22.4241 28.1704L17.591 28.2136L17.699 40.2965C17.7051 40.9812 17.4786 41.5572 17.0196 42.0245C16.5606 42.4918 15.9887 42.7285 15.304 42.7346L5.63772 42.821C4.3086 42.8329 3.16657 42.3698 2.21163 41.4318C1.25668 40.4937 0.773267 39.3602 0.761391 38.0311Z" fill="white"/>
</svg>
